<svg width="134" height="48" viewBox="0 0 134 48" fill="none" xmlns="http://www.w3.org/2000/svg">
<path fill-rule="evenodd" clip-rule="evenodd" d="M0 48H48V0H0V48Z" fill="#0077B2"/>
<path fill-rule="evenodd" clip-rule="evenodd" d="M27.6768 34.4987L25.5003 40.4997H41.255L43.4321 34.4987H27.6768ZM22.5008 40.502L34.4992 7.49915H16.4991L4.5 40.5002L22.5008 40.502Z" fill="#FFFFFE"/>
<path fill-rule="evenodd" clip-rule="evenodd" d="M66.0981 13.716C66.0981 15.5826 65.5814 17.0825 64.548 18.216C63.5148 19.3493 62.1982 19.9159 60.5982 19.9159C59.187 19.9159 58.034 19.5301 57.1398 18.7577C56.2452 17.9854 55.6982 16.905 55.498 15.5161H57.0815C57.259 16.505 57.6423 17.2605 58.2314 17.7827C58.8204 18.3051 59.5869 18.5659 60.5316 18.5659C61.6649 18.5659 62.5953 18.1631 63.3232 17.3576C64.0507 16.5521 64.4481 15.4548 64.5148 14.0659H58.7482V12.7492H64.4481C64.3035 11.6049 63.9092 10.6688 63.2647 9.94088C62.6202 9.21339 61.7204 8.84935 60.5648 8.84935C59.6983 8.84935 58.9618 9.06042 58.3563 9.48255C57.7507 9.90507 57.3537 10.4826 57.1649 11.216H55.5814C55.6703 10.4382 55.9673 9.76065 56.473 9.18276C56.9787 8.60506 57.584 8.18015 58.2898 7.90761C58.9952 7.63567 59.7424 7.49921 60.5316 7.49921C62.3202 7.49921 63.6952 8.08546 64.6564 9.25756C65.6175 10.4301 66.0981 11.9159 66.0981 13.716Z" fill="#0077B2"/>
<path fill-rule="evenodd" clip-rule="evenodd" d="M77.0478 19.6327H75.3145L71.8976 9.29939L68.4478 19.6327H66.7979L71.0311 7.76624H72.8312L77.0478 19.6327Z" fill="#0077B2"/>
<path fill-rule="evenodd" clip-rule="evenodd" d="M86.8565 7.76617V9.13263H80.2062V12.8495H86.423V14.1658H80.2062V18.2661H86.9398V19.6326H78.6396V7.76617H86.8565Z" fill="#0077B2"/>
<path fill-rule="evenodd" clip-rule="evenodd" d="M88.5312 7.76617H90.698L94.5145 17.816L98.1979 7.76617H100.381V19.6326H98.8977V9.7326L95.1813 19.6326H93.8147L90.0312 9.7326V19.6326H88.5312V7.76617Z" fill="#0077B2"/>
<path fill-rule="evenodd" clip-rule="evenodd" d="M111.248 7.76617V9.13263H104.598V12.8495H110.814V14.1658H104.598V18.2661H111.331V19.6326H103.031V7.76617H111.248Z" fill="#0077B2"/>
<path fill-rule="evenodd" clip-rule="evenodd" d="M122.615 7.76617V19.6326H121.048V14.0824H114.782V19.6326H113.215V7.76617H114.782V12.716H121.048V7.76617H122.615Z" fill="#0077B2"/>
<path fill-rule="evenodd" clip-rule="evenodd" d="M133.481 7.76617V9.13263H129.497V19.6326H127.931V9.13263H123.947V7.76617H133.481Z" fill="#0077B2"/>
<path fill-rule="evenodd" clip-rule="evenodd" d="M65.6651 40.4031H63.9317L60.515 30.0698L57.065 40.4031H55.415L59.6483 28.5367H61.4484L65.6651 40.4031Z" fill="#0077B2"/>
<path fill-rule="evenodd" clip-rule="evenodd" d="M67.3232 40.4031V28.5367H68.8898V38.5865H68.923L74.74 28.5367H76.7229V40.4031H75.1565V30.3197H75.1231L69.2899 40.4031H67.3232Z" fill="#0077B2"/>
<path fill-rule="evenodd" clip-rule="evenodd" d="M88.0197 36.9364C88.0197 37.3257 87.9306 37.7279 87.7529 38.1447C87.5751 38.5614 87.3139 38.9643 86.9695 39.353C86.6252 39.7423 86.1418 40.0588 85.5197 40.3033C84.8973 40.5474 84.1917 40.6699 83.4029 40.6699C81.9139 40.6699 80.7221 40.3172 79.8279 39.6114C78.9333 38.906 78.4863 37.8644 78.4863 36.4864H80.0028C80.0362 37.4975 80.3752 38.2338 81.0197 38.6949C81.6638 39.156 82.5029 39.3864 83.5364 39.3864C84.3695 39.3864 85.064 39.159 85.6198 38.7033C86.1752 38.2475 86.4529 37.6475 86.4529 36.9031C86.4529 36.4923 86.3751 36.1422 86.2196 35.8532C86.064 35.5643 85.8362 35.3479 85.5364 35.2033C85.2364 35.0589 84.9223 34.959 84.5945 34.9031C84.2669 34.8478 83.8863 34.8197 83.453 34.8197C83.0751 34.8197 82.7194 34.8309 82.3864 34.853V33.5531C82.5638 33.5756 82.9195 33.5864 83.453 33.5864C85.175 33.5864 86.0361 32.8756 86.0361 31.4534C86.0361 30.1862 85.1863 29.5532 83.4863 29.5532C81.6863 29.5532 80.703 30.3589 80.5363 31.9699H79.0197C79.0638 30.7476 79.4971 29.8228 80.3197 29.1948C81.1419 28.5673 82.2137 28.2532 83.5364 28.2532C84.7473 28.2532 85.728 28.5196 86.478 29.0531C87.2281 29.5865 87.6029 30.3866 87.6029 31.4534C87.6029 32.0532 87.4084 32.5949 87.0197 33.0783C86.6306 33.5613 86.1696 33.8812 85.6363 34.0367V34.0865C86.3916 34.2309 86.9781 34.5699 87.3946 35.103C87.8114 35.6365 88.0197 36.2475 88.0197 36.9364Z" fill="#0077B2"/>
<path fill-rule="evenodd" clip-rule="evenodd" d="M89.7812 40.4031V28.5367H91.3478V38.5865H91.3813L97.198 28.5367H99.1811V40.4031H97.6145V30.3197H97.5813L91.7481 40.4031H89.7812Z" fill="#0077B2"/>
<path fill-rule="evenodd" clip-rule="evenodd" d="M111.331 28.5366V40.403H109.764V34.853H103.497V40.403H101.931V28.5366H103.497V33.4866H109.764V28.5366H111.331Z" fill="#0077B2"/>
<path fill-rule="evenodd" clip-rule="evenodd" d="M115.414 40.4031H113.848V28.5367H121.647V29.9031H115.414V40.4031Z" fill="#0077B2"/>
</svg>
